<?xml version="1.0" encoding="utf-8"?>
<!-- Generator: Adobe Illustrator 15.1.0, SVG Export Plug-In  -->
<!DOCTYPE svg PUBLIC "-//W3C//DTD SVG 1.1//EN" "http://www.w3.org/Graphics/SVG/1.1/DTD/svg11.dtd" [
	<!ENTITY ns_flows "http://ns.adobe.com/Flows/1.0/">
]>
<svg version="1.1"
	 xmlns="http://www.w3.org/2000/svg" xmlns:xlink="http://www.w3.org/1999/xlink" xmlns:a="http://ns.adobe.com/AdobeSVGViewerExtensions/3.0/"
	 x="0px" y="0px" width="382px" height="74px" viewBox="-3.592 -1.866 382 74" enable-background="new -3.592 -1.866 382 74"
	 xml:space="preserve">
<defs>
</defs>
<path fill="#231F20" d="M0,50.111l6.553-7.849c4.536,3.744,9.289,6.121,15.049,6.121c4.536,0,7.272-1.8,7.272-4.752v-0.144
	c0-2.808-1.728-4.249-10.153-6.409c-10.153-2.592-16.706-5.4-16.706-15.409v-0.144c0-9.145,7.345-15.193,17.642-15.193
	c7.345,0,13.609,2.304,18.722,6.409l-5.761,8.353c-4.464-3.096-8.856-4.968-13.105-4.968s-6.48,1.944-6.48,4.393v0.144
	c0,3.313,2.16,4.393,10.873,6.625c10.225,2.664,15.986,6.336,15.986,15.121v0.144c0,10.009-7.633,15.625-18.506,15.625
	C13.753,58.176,6.048,55.512,0,50.111z"/>
<path fill="#231F20" d="M46.585,46.511v-18.29h-4.608v-9.361h4.608V8.996H57.53v9.865h9.073v9.361H57.53v16.489
	c0,2.52,1.08,3.744,3.528,3.744c2.016,0,3.816-0.504,5.4-1.368v8.785c-2.304,1.368-4.968,2.232-8.641,2.232
	C51.121,58.104,46.585,55.44,46.585,46.511z"/>
<path fill="#231F20" d="M69.12,46.367v-0.144c0-8.425,6.409-12.313,15.553-12.313c3.888,0,6.697,0.648,9.433,1.584v-0.648
	c0-4.537-2.809-7.057-8.281-7.057c-4.177,0-7.129,0.792-10.657,2.088l-2.736-8.353c4.249-1.872,8.425-3.096,14.978-3.096
	c5.977,0,10.297,1.584,13.033,4.32c2.88,2.88,4.176,7.128,4.176,12.313v22.394H94.034V53.28c-2.664,2.952-6.336,4.896-11.665,4.896
	C75.097,58.176,69.12,54,69.12,46.367z M94.25,43.847v-1.944c-1.872-0.864-4.32-1.44-6.984-1.44c-4.68,0-7.561,1.873-7.561,5.329
	v0.144c0,2.952,2.448,4.68,5.977,4.68C90.794,50.615,94.25,47.807,94.25,43.847z"/>
<path fill="#231F20" d="M108.936,38.375V38.23c0-11.017,8.425-20.09,20.233-20.09c7.273,0,11.809,2.448,15.41,6.48l-6.697,7.201
	c-2.448-2.592-4.896-4.249-8.785-4.249c-5.473,0-9.361,4.825-9.361,10.513v0.144c0,5.904,3.816,10.657,9.793,10.657
	c3.672,0,6.192-1.584,8.856-4.104l6.409,6.481c-3.744,4.104-8.064,7.057-15.77,7.057C117.433,58.32,108.936,49.391,108.936,38.375z"
	/>
<path fill="#231F20" d="M148.68,4.892h10.945v28.01l12.817-14.041h13.105l-14.689,15.193l15.193,23.402h-12.673l-9.865-15.841
	l-3.888,4.104v11.737H148.68V4.892z"/>
<path fill="#231F20" d="M215.063,0h5.112l-33.408,66.672h-5.112L215.063,0z"/>
<path fill="#231F20" d="M228.887,58.176c-2.688,0-5.4-0.493-8.136-1.476c-2.736-0.983-5.161-2.315-7.272-3.996l2.808-3.96
	c2.016,1.537,4.115,2.712,6.3,3.528c2.184,0.817,4.379,1.224,6.588,1.224c2.256,0,4.104-0.528,5.544-1.584
	c1.44-1.055,2.16-2.495,2.16-4.32v-0.144c0-0.96-0.252-1.764-0.756-2.412c-0.504-0.648-1.188-1.224-2.052-1.728
	s-1.848-0.947-2.952-1.332c-1.104-0.384-2.28-0.744-3.528-1.08c-1.44-0.432-2.893-0.9-4.356-1.404
	c-1.465-0.504-2.785-1.14-3.96-1.908c-1.177-0.767-2.136-1.728-2.88-2.88c-0.745-1.152-1.116-2.592-1.116-4.32V30.24
	c0-1.584,0.312-3.036,0.936-4.356c0.623-1.32,1.5-2.448,2.628-3.384c1.127-0.936,2.472-1.656,4.032-2.16
	c1.559-0.504,3.251-0.756,5.076-0.756c2.304,0,4.632,0.373,6.984,1.116c2.352,0.745,4.488,1.74,6.408,2.988l-2.52,4.176
	c-1.728-1.104-3.541-1.98-5.436-2.628c-1.896-0.648-3.756-0.972-5.58-0.972c-2.208,0-3.96,0.516-5.256,1.548
	c-1.296,1.033-1.944,2.316-1.944,3.852v0.144c0,0.864,0.263,1.62,0.792,2.268c0.527,0.648,1.235,1.212,2.124,1.692
	c0.888,0.48,1.908,0.913,3.06,1.296c1.152,0.385,2.351,0.769,3.6,1.152c1.44,0.432,2.868,0.913,4.284,1.44
	c1.415,0.528,2.7,1.2,3.852,2.016c1.152,0.817,2.076,1.8,2.772,2.952c0.695,1.152,1.044,2.568,1.044,4.248v0.144
	c0,1.776-0.349,3.348-1.044,4.716c-0.696,1.368-1.632,2.533-2.808,3.492c-1.177,0.96-2.568,1.692-4.176,2.196
	C232.499,57.924,230.759,58.176,228.887,58.176z"/>
<path fill="#231F20" d="M260.927,58.104c-1.489,0-2.881-0.192-4.177-0.575c-1.296-0.383-2.412-0.994-3.348-1.832
	c-0.936-0.838-1.668-1.928-2.196-3.27c-0.528-1.341-0.792-2.945-0.792-4.813V25.2h-5.184v-4.968h5.184V9h5.544v11.232h11.809V25.2
	h-11.809v21.744c0,2.304,0.576,3.913,1.729,4.824c1.151,0.913,2.664,1.368,4.536,1.368c0.959,0,1.859-0.102,2.699-0.304
	c0.84-0.203,1.739-0.557,2.7-1.064v4.752c-0.961,0.529-1.979,0.925-3.06,1.188S262.27,58.104,260.927,58.104z"/>
<path fill="#231F20" d="M290.23,58.32c-2.784,0-5.353-0.516-7.703-1.548c-2.353-1.032-4.393-2.423-6.12-4.176
	c-1.729-1.752-3.072-3.792-4.032-6.12c-0.961-2.328-1.44-4.812-1.44-7.452V38.88c0-2.639,0.492-5.135,1.477-7.488
	c0.983-2.351,2.34-4.416,4.067-6.192c1.729-1.775,3.78-3.179,6.156-4.212c2.376-1.032,4.956-1.548,7.74-1.548
	c2.783,0,5.364,0.517,7.74,1.548c2.376,1.033,4.428,2.424,6.155,4.176c1.729,1.753,3.071,3.792,4.032,6.12
	c0.96,2.329,1.44,4.813,1.44,7.452v0.144c0,2.641-0.493,5.137-1.477,7.488c-0.984,2.352-2.34,4.417-4.067,6.192
	c-1.729,1.776-3.78,3.18-6.156,4.212S293.062,58.32,290.23,58.32z M290.375,53.352c2.016,0,3.863-0.382,5.544-1.148
	c1.68-0.766,3.119-1.796,4.32-3.088c1.199-1.292,2.135-2.801,2.808-4.525c0.672-1.723,1.008-3.567,1.008-5.53v-0.144
	c0-2.01-0.349-3.889-1.044-5.637c-0.696-1.749-1.668-3.281-2.916-4.597c-1.249-1.316-2.712-2.358-4.392-3.125
	c-1.681-0.766-3.505-1.149-5.473-1.149c-2.016,0-3.864,0.383-5.544,1.149c-1.681,0.766-3.108,1.796-4.283,3.088
	c-1.177,1.292-2.101,2.813-2.772,4.561c-0.673,1.749-1.008,3.604-1.008,5.565v0.144c0,2.012,0.348,3.89,1.044,5.639
	c0.695,1.748,1.656,3.268,2.88,4.561s2.675,2.322,4.356,3.088C286.582,52.97,288.406,53.352,290.375,53.352z"/>
<path fill="#231F20" d="M316.51,20.232h5.544v9.72c0.671-1.536,1.512-2.952,2.52-4.248s2.16-2.412,3.456-3.348
	s2.711-1.656,4.248-2.16c1.536-0.504,3.191-0.708,4.968-0.612v5.976h-0.432c-2.016,0-3.924,0.36-5.724,1.08
	c-1.801,0.72-3.373,1.8-4.717,3.24s-2.4,3.216-3.168,5.328c-0.769,2.113-1.151,4.584-1.151,7.416v14.832h-5.544V20.232z"/>
<path fill="#231F20" d="M345.67,46.368c0.768,1.537,1.752,2.833,2.952,3.888c1.199,1.057,2.544,1.861,4.032,2.412
	c1.487,0.552,3.048,0.828,4.68,0.828c2.593,0,4.812-0.479,6.66-1.44c1.848-0.96,3.539-2.232,5.076-3.816l3.456,3.096
	c-1.872,2.113-4.009,3.805-6.408,5.076c-2.4,1.271-5.376,1.908-8.928,1.908c-2.545,0-4.944-0.468-7.2-1.404
	c-2.257-0.936-4.225-2.255-5.904-3.96c-1.681-1.703-3.013-3.755-3.996-6.156c-0.984-2.4-1.476-5.04-1.476-7.92
	c0-2.688,0.443-5.22,1.332-7.596c0.888-2.376,2.124-4.439,3.708-6.192c1.584-1.752,3.467-3.132,5.652-4.14
	c2.184-1.008,4.571-1.512,7.164-1.512c2.735,0,5.184,0.517,7.344,1.548c2.16,1.033,3.983,2.437,5.472,4.212
	c1.487,1.776,2.616,3.864,3.384,6.264c0.768,2.401,1.152,4.968,1.152,7.704c0,0.241,0,0.529,0,0.864c0,0.288-0.024,0.648-0.072,1.08
	h-29.52C344.422,43.081,344.903,44.833,345.67,46.368z M368.135,36.648c-0.145-1.68-0.505-3.276-1.08-4.788
	c-0.576-1.512-1.357-2.844-2.341-3.996c-0.984-1.152-2.185-2.063-3.6-2.736c-1.416-0.671-3.036-1.008-4.86-1.008
	c-1.584,0-3.072,0.313-4.464,0.936c-1.393,0.625-2.616,1.5-3.672,2.628c-1.057,1.128-1.933,2.448-2.628,3.96
	c-0.696,1.512-1.141,3.18-1.332,5.004H368.135z"/>
</svg>
